<svg id="Layer_1" data-name="Layer 1" xmlns="http://www.w3.org/2000/svg" viewBox="0 0 71.13 71.14"><defs><style>.cls-1{fill:#3a8686;}.cls-2{fill:#79bd9a;}.cls-3{fill:#09476b;}</style></defs><title>gnomex_icon1</title><g id="widget"><path class="cls-1" d="M137.93,167l-4-4a25.52,25.52,0,0,0-.75,2.92c-0.14.73-.26,1.46-0.35,2.18h0c0.73-.09,1.48-0.21,2.23-0.36A25.57,25.57,0,0,0,137.93,167Zm2.28-.9a12.26,12.26,0,0,0,2-1.19L136,158.74a12.22,12.22,0,0,0-1.19,2Zm3.62-2.74a11.33,11.33,0,0,0,1.24-1.94l-5.55-5.55a11.39,11.39,0,0,0-1.94,1.24Zm2.17-4.19a23.32,23.32,0,0,0,.8-3.16c0.14-.74.24-1.47,0.32-2.19-0.72.08-1.46,0.18-2.2,0.32a23.36,23.36,0,0,0-3.15.8ZM176,119a14.77,14.77,0,0,0-1,2.13l4.79,4.79a14.84,14.84,0,0,0,2.14-1L176,119h0Zm-1.83,4.53q-0.23.85-.41,1.76-0.09.43-.16,0.86l1.13,1.13,0.91-.16q0.88-.17,1.71-0.39l-3.18-3.18h0Zm-10.85,10.68,3.4,3.4q0.24-.9.43-1.87c0.15-.79.27-1.57,0.36-2.33h0c-0.76.09-1.53,0.21-2.32,0.36s-1.28.27-1.88,0.44h0ZM161,135a14.41,14.41,0,0,0-2.11,1.06l6,6a14.46,14.46,0,0,0,1.06-2.12l-5-5h0Zm-3.9,2.46h0l-0.17.18a9.86,9.86,0,0,0-1.21,1.61l6,6a9.86,9.86,0,0,0,1.59-1.2l0.18-.17,0,0-0.09-.08-6.35-6.35h0Zm-2.44,3.91a23.34,23.34,0,0,0-1.22,4.23c-0.16.79-.28,1.58-0.37,2.35,0.75-.09,1.53-0.21,2.3-0.37a23.3,23.3,0,0,0,4.27-1.24l-5-5h0Zm-29.54,32.94-0.49.09c-0.73.14-1.43,0.31-2.1,0.5l3.55,3.55c0.19-.67.35-1.36,0.5-2.09l0.09-.5-1.56-1.56h0Zm-4.95,1.41a14.73,14.73,0,0,0-1.59.78,21.88,21.88,0,0,0,6,5.67q0.35-.64.65-1.36l-5.1-5.1h0Zm53-42.65h0a37.15,37.15,0,0,1-.53,3.71c-0.87,4.47-2.5,8.3-5.21,11l-0.3.29c-2.66,2.5-6.36,4-10.67,4.88-1.33.26-2.58,0.44-3.67,0.54-0.09,1-.24,2.22-0.47,3.49-0.82,4.44-2.42,8.25-5.14,11l-0.3.29c-2.66,2.5-6.36,4-10.68,4.89-1.33.26-2.57,0.44-3.66,0.54-0.11,1.11-.28,2.38-0.55,3.75a26.24,26.24,0,0,1-2.36,7.07,21.64,21.64,0,0,0,6.6,1h27.7a21.73,21.73,0,0,0,21.71-21.71v-27.7a21.65,21.65,0,0,0-1-6.39h0a25.16,25.16,0,0,1-7.87,2.8C175.41,132.83,174.17,133,173.08,133.1Zm-1.54-17.26a21.61,21.61,0,0,0-7.69-1.41h-27.7a21.73,21.73,0,0,0-21.71,21.71v27.7a21.61,21.61,0,0,0,1.46,7.82,25.51,25.51,0,0,1,7.62-2.66c1.37-.27,2.64-0.45,3.75-0.55,0.11-1.07.28-2.29,0.54-3.59,0.85-4.31,2.38-8,4.88-10.67l0.29-.3c2.71-2.71,6.52-4.31,11-5.13,1.26-.23,2.44-0.38,3.49-0.47,0.11-1.11.28-2.37,0.55-3.73,0.85-4.31,2.39-8,4.89-10.68l0.29-.3c2.71-2.71,6.54-4.34,11-5.21a37.14,37.14,0,0,1,3.71-.53c0.11-1.07.28-2.28,0.53-3.58a24.39,24.39,0,0,1,3.14-8.41h0Z" transform="translate(-114.44 -114.43)"/><path class="cls-2" d="M171.55,115.84a21.61,21.61,0,0,0-7.69-1.41h-27.7a21.73,21.73,0,0,0-21.71,21.71v27.7a21.61,21.61,0,0,0,1.46,7.82,25.51,25.51,0,0,1,7.62-2.66c1.37-.27,2.64-0.45,3.75-0.55,0.11-1.07.28-2.29,0.54-3.6,0.85-4.31,2.38-8,4.88-10.67l0.29-.3c2.71-2.71,6.52-4.31,11-5.13,1.26-.23,2.44-0.38,3.49-0.47,0.11-1.11.28-2.37,0.55-3.73,0.85-4.31,2.39-8,4.89-10.68l0.29-.3c2.71-2.71,6.54-4.34,11-5.21a37.14,37.14,0,0,1,3.71-.53c0.11-1.07.28-2.28,0.53-3.58A24.39,24.39,0,0,1,171.55,115.84Z" transform="translate(-114.44 -114.43)"/><path class="cls-3" d="M184.16,128.46a21.61,21.61,0,0,1,1.41,7.69v27.7a21.73,21.73,0,0,1-21.71,21.71h-27.7a21.61,21.61,0,0,1-7.82-1.46A25.51,25.51,0,0,0,131,176.5c0.27-1.37.45-2.64,0.55-3.75,1.07-.11,2.29-0.28,3.6-0.54,4.31-.85,8-2.38,10.67-4.88l0.3-.29c2.71-2.71,4.31-6.52,5.13-11,0.23-1.26.38-2.44,0.47-3.49,1.11-.11,2.37-0.28,3.73-0.55,4.31-.85,8-2.39,10.68-4.89l0.3-.29c2.71-2.71,4.34-6.54,5.21-11a37.14,37.14,0,0,0,.53-3.71c1.07-.11,2.28-0.28,3.58-0.53A24.39,24.39,0,0,0,184.16,128.46Z" transform="translate(-114.44 -114.43)"/></g></svg>