<?xml version="1.0" encoding="UTF-8" standalone="no"?>
<svg
   xmlns:dc="http://purl.org/dc/elements/1.1/"
   xmlns:cc="http://creativecommons.org/ns#"
   xmlns:rdf="http://www.w3.org/1999/02/22-rdf-syntax-ns#"
   xmlns:svg="http://www.w3.org/2000/svg"
   xmlns="http://www.w3.org/2000/svg"
   xmlns:sodipodi="http://sodipodi.sourceforge.net/DTD/sodipodi-0.dtd"
   xmlns:inkscape="http://www.inkscape.org/namespaces/inkscape"
   id="Layer_1"
   data-name="Layer 1"
   viewBox="0 0 223.24 64.68"
   version="1.1"
   inkscape:version="0.91 r13725"
   sodipodi:docname="gnomex.svg">
  <metadata
     id="metadata19">
    <rdf:RDF>
      <cc:Work
         rdf:about="">
        <dc:format>image/svg+xml</dc:format>
        <dc:type
           rdf:resource="http://purl.org/dc/dcmitype/StillImage" />
        <dc:title>gnomex</dc:title>
      </cc:Work>
    </rdf:RDF>
  </metadata>
  <sodipodi:namedview
     pagecolor="#ffffff"
     bordercolor="#666666"
     borderopacity="1"
     objecttolerance="10"
     gridtolerance="10"
     guidetolerance="10"
     inkscape:pageopacity="0"
     inkscape:pageshadow="2"
     inkscape:window-width="1495"
     inkscape:window-height="861"
     id="namedview17"
     showgrid="false"
     inkscape:zoom="1.2900913"
     inkscape:cx="111.62"
     inkscape:cy="32.34"
     inkscape:window-x="310"
     inkscape:window-y="209"
     inkscape:window-maximized="0"
     inkscape:current-layer="Layer_1" />
  <defs
     id="defs3">
    <style
       id="style5">.cls-1{font-size:60px;fill:#231f20;font-family:Raleway;}.cls-2{letter-spacing:-1px;}.cls-3{fill:none;stroke:#231f20;stroke-miterlimit:10;}</style>
  </defs>
  <title
     id="title7">gnomex</title>
  <path
     inkscape:connector-curvature="0"
     id="path4148"
     style="font-size:60px;font-family:Raleway;fill:#231f20"
     d="m 31.962891,47.579297 q 0,8.320312 -3.779297,12.216797 -3.779297,3.896484 -11.63086,3.896484 -2.607421,0 -5.097656,-0.380859 -2.4609374,-0.351563 -4.8632811,-1.025391 l 0,-5.625 0.2929687,0 q 1.3476563,0.527344 4.2773434,1.289063 2.929688,0.791015 5.859375,0.791015 2.8125,0 4.658203,-0.673828 1.845704,-0.673828 2.871094,-1.875 1.025391,-1.142578 1.464844,-2.753906 0.439453,-1.611328 0.439453,-3.603516 l 0,-2.988281 q -2.490234,1.992187 -4.775391,2.988281 -2.255859,0.966797 -5.771484,0.966797 -5.859375,0 -9.3164061,-4.21875 -3.4277344,-4.248047 -3.4277344,-11.953125 0,-4.21875 1.171875,-7.265625 1.2011719,-3.076172 3.2519531,-5.302734 1.9042969,-2.080078 4.6289064,-3.222656 2.724609,-1.171875 5.419922,-1.171875 2.841797,0 4.746093,0.585937 1.933594,0.556641 4.072266,1.728516 l 0.351563,-1.40625 5.15625,0 0,29.003906 z m -5.507813,-5.273438 0,-17.841796 q -2.197266,-0.996094 -4.101562,-1.40625 -1.875,-0.439454 -3.75,-0.439454 -4.541016,0 -7.148438,3.046875 -2.6074217,3.046875 -2.6074217,8.847657 0,5.507812 1.9335937,8.349609 1.933594,2.841797 6.416016,2.841797 2.402343,0 4.804687,-0.908203 2.431641,-0.9375 4.453125,-2.490235 z" />
  <path
     inkscape:connector-curvature="0"
     id="path4150"
     style="font-size:60px;font-family:Raleway;fill:#231f20"
     d="m 70.166016,51.3 -5.507813,0 0,-18.632812 q 0,-2.25586 -0.263672,-4.21875 -0.263672,-1.992188 -0.966797,-3.105469 -0.732422,-1.230469 -2.109375,-1.816406 -1.376953,-0.615235 -3.574218,-0.615235 -2.25586,0 -4.716797,1.113281 -2.460938,1.113282 -4.716797,2.841797 l 0,24.433594 -5.507813,0 0,-32.724609 5.507813,0 0,3.632812 q 2.578125,-2.138672 5.332031,-3.339844 2.753906,-1.201171 5.654297,-1.201171 5.302734,0 8.085937,3.193359 2.783204,3.193359 2.783204,9.199219 l 0,21.240234 z" />
  <path
     inkscape:connector-curvature="0"
     id="path4152"
     style="font-size:60px;font-family:Raleway;fill:#231f20"
     d="m 108.66211,34.952344 q 0,7.998047 -4.10156,12.626953 -4.10157,4.628906 -10.986331,4.628906 -6.94336,0 -11.044922,-4.628906 -4.072266,-4.628906 -4.072266,-12.626953 0,-7.998047 4.072266,-12.626953 4.101562,-4.658203 11.044922,-4.658203 6.884761,0 10.986331,4.658203 4.10156,4.628906 4.10156,12.626953 z m -5.68359,0 q 0,-6.357422 -2.49024,-9.433594 -2.490233,-3.105469 -6.914061,-3.105469 -4.482422,0 -6.972657,3.105469 -2.460937,3.076172 -2.460937,9.433594 0,6.152343 2.490234,9.345703 2.490235,3.164062 6.94336,3.164062 4.394531,0 6.884761,-3.134765 2.51954,-3.164063 2.51954,-9.375 z" />
  <path
     inkscape:connector-curvature="0"
     id="path4154"
     style="font-size:60px;font-family:Raleway;fill:#231f20"
     d="m 164.9707,51.3 -5.50781,0 0,-18.632812 q 0,-2.109375 -0.20508,-4.072266 -0.17578,-1.962891 -0.79101,-3.134766 -0.67383,-1.259765 -1.9336,-1.904297 -1.25976,-0.644531 -3.63281,-0.644531 -2.31445,0 -4.62891,1.171875 -2.31445,1.142578 -4.6289,2.929688 0.0879,0.673828 0.14648,1.582031 0.0586,0.878906 0.0586,1.757812 l 0,20.947266 -5.50782,0 0,-18.632812 q 0,-2.167969 -0.20507,-4.101563 -0.17579,-1.962891 -0.79102,-3.134766 -0.67383,-1.259765 -1.93359,-1.875 -1.25977,-0.644531 -3.63282,-0.644531 -2.25586,0 -4.54101,1.113281 -2.25586,1.113282 -4.51172,2.841797 l 0,24.433594 -5.50781,0 0,-32.724609 5.50781,0 0,3.632812 q 2.57812,-2.138672 5.12695,-3.339844 2.57813,-1.201171 5.47852,-1.201171 3.33984,0 5.65429,1.40625 2.34375,1.40625 3.48633,3.896484 3.33985,-2.8125 6.09375,-4.042969 2.75391,-1.259765 5.88867,-1.259765 5.39063,0 7.93946,3.28125 2.57812,3.251953 2.57812,9.111328 l 0,21.240234 z" />
  <path
     inkscape:connector-curvature="0"
     id="path4156"
     style="font-size:medium;font-family:Raleway;letter-spacing:-1px;fill:#231f20"
     d="m 192.41251,35.508984 -24.11133,0 q 0,3.017578 0.9082,5.273438 0.9082,2.226562 2.49024,3.662109 1.52343,1.40625 3.60351,2.109375 2.10938,0.703125 4.62891,0.703125 3.33984,0 6.70898,-1.318359 3.39844,-1.347656 4.83399,-2.636719 l 0.29296,0 0,6.005859 q -2.7832,1.171875 -5.68359,1.962891 -2.90039,0.791016 -6.09375,0.791016 -8.14453,0 -12.71484,-4.394532 -4.57032,-4.423828 -4.57032,-12.539062 0,-8.027344 4.36524,-12.744141 4.39453,-4.716796 11.54297,-4.716796 6.62109,0 10.19531,3.867187 3.60352,3.867188 3.60352,10.986328 l 0,2.988281 z m -5.36133,-4.21875 q -0.0293,-4.335937 -2.19727,-6.708984 -2.13867,-2.373047 -6.5332,-2.373047 -4.42383,0 -7.06055,2.607422 -2.60742,2.607422 -2.95898,6.474609 l 18.75,0 z" />
  <path
     inkscape:connector-curvature="0"
     id="path4158"
     style="font-size:medium;font-family:Raleway;fill:#231f20"
     d="m 226.83,51.3 -6.94336,0 -9.28711,-12.568359 -9.3457,12.568359 -6.41602,0 12.77344,-16.318359 -12.65625,-16.40625 6.94336,0 9.22852,12.363281 9.25781,-12.363281 6.44531,0 L 213.96867,34.688672 226.83,51.3 Z" />
  <line
     class="cls-3"
     x1="37.91"
     y1="56.4"
     x2="223.24"
     y2="56.4"
     id="line15" />
</svg>
